<!DOCTYPE svg PUBLIC "-//W3C//DTD SVG 1.1//EN" "http://www.w3.org/Graphics/SVG/1.1/DTD/svg11.dtd">
<!-- Uploaded to: SVG Repo, www.svgrepo.com, Transformed by: SVG Repo Mixer Tools -->
<svg width="800px" height="800px" viewBox="-3 0 20 20" version="1.1" xmlns="http://www.w3.org/2000/svg" xmlns:xlink="http://www.w3.org/1999/xlink" fill="#000000">
<g id="SVGRepo_bgCarrier" stroke-width="0"/>
<g id="SVGRepo_tracerCarrier" stroke-linecap="round" stroke-linejoin="round"/>
<g id="SVGRepo_iconCarrier"> <title>female [#1363]</title> <desc>Created with Sketch.</desc> <defs> </defs> <g id="Page-1" stroke="none" stroke-width="1" fill="none" fill-rule="evenodd"> <g id="Dribbble-Light-Preview" transform="translate(-103.000000, -2079.000000)" fill="#ff0000"> <g id="icons" transform="translate(56.000000, 160.000000)"> <path d="M54.010058,1930.97067 C52.6753909,1930.97067 51.421643,1930.45194 50.4775859,1929.51025 C47.3327267,1926.36895 49.5904718,1920.99511 54.010058,1920.99511 C58.4266471,1920.99511 60.6903863,1926.36595 57.5425301,1929.51025 C56.5984729,1930.45194 55.344725,1930.97067 54.010058,1930.97067 M58.9411333,1930.92079 C63.3617184,1926.50661 60.1768991,1919 54.007061,1919 C47.8512088,1919 44.6294265,1926.50661 49.0510106,1930.92079 C50.1609021,1932.02908 51.9840813,1932.67949 52.9830836,1932.88598 L52.9830836,1935.00978 L49.9860767,1935.00978 L49.9860767,1937.00489 L52.9830836,1937.00489 L52.9830836,1939 L54.9810882,1939 L54.9810882,1937.00489 L57.9780951,1937.00489 L57.9780951,1935.00978 L54.9810882,1935.00978 L54.9810882,1932.88598 C56.9790928,1932.67949 57.8302427,1932.02908 58.9411333,1930.92079" id="female-[#1363]"> </path> </g> </g> </g> </g>
</svg>